<?xml version="1.0" encoding="UTF-8" standalone="no"?>
<!DOCTYPE svg PUBLIC "-//W3C//DTD SVG 1.1//EN" "http://www.w3.org/Graphics/SVG/1.1/DTD/svg11.dtd">
<svg width="100%" height="100%" viewBox="0 0 1175 280" version="1.1" xmlns="http://www.w3.org/2000/svg" xmlns:xlink="http://www.w3.org/1999/xlink" xml:space="preserve" xmlns:serif="http://www.serif.com/" style="fill-rule:evenodd;clip-rule:evenodd;stroke-linejoin:round;stroke-miterlimit:1.41421;">
    <g id="XMLID_62_" transform="matrix(1.4,0,0,1.4,0,0)">
        <path id="XMLID_106_" d="M122.5,90.6L70.1,0L0,0L57.8,100L0,200L70.1,200L122.5,109.4C125.8,103.6 125.8,96.4 122.5,90.6Z" style="fill:none;"/>
        <path id="XMLID_105_" d="M92.4,159.8L75.8,131.1L35.9,200L70.1,200L92.9,160.6L92.4,159.8Z" style="fill:rgb(255,193,7);fill-rule:nonzero;"/>
        <path id="XMLID_104_" d="M122.5,90.6L70.1,0L0,0L57.8,100L0,200L70.1,200L122.5,109.4C125.8,103.6 125.8,96.4 122.5,90.6Z" style="fill:none;"/>
        <path id="XMLID_103_" d="M57.8,100L75.8,131.1L35.9,200L0,200L57.8,100Z" style="fill:rgb(15,157,88);fill-rule:nonzero;"/>
        <path id="XMLID_102_" d="M122.5,90.6L70.1,0L0,0L57.8,100L0,200L70.1,200L122.5,109.4C125.8,103.6 125.8,96.4 122.5,90.6Z" style="fill:none;"/>
        <path id="XMLID_101_" d="M70.1,198.4L36.8,198.4L35.9,200L70.1,200L92.9,160.6L92.4,159.8L70.1,198.4Z" style="fill:rgb(191,54,12);fill-opacity:0.2;fill-rule:nonzero;"/>
        <path id="XMLID_100_" d="M122.5,90.6L70.1,0L0,0L57.8,100L0,200L70.1,200L122.5,109.4C125.8,103.6 125.8,96.4 122.5,90.6Z" style="fill:none;"/>
        <path id="XMLID_99_" d="M0.9,198.4L0,200L35.9,200L36.8,198.4L0.9,198.4Z" style="fill:rgb(38,50,56);fill-opacity:0.2;fill-rule:nonzero;"/>
        <path id="XMLID_98_" d="M122.5,90.6L70.1,0L0,0L57.8,100L0,200L70.1,200L122.5,109.4C125.8,103.6 125.8,96.4 122.5,90.6Z" style="fill:none;"/>
        <path id="XMLID_96_" d="M0,200L0.9,200L58.3,100.8L57.8,100L0,200Z" style="fill:white;fill-opacity:0.2;fill-rule:nonzero;"/>
        <path id="XMLID_94_" d="M122.5,90.6L70.1,0L0,0L57.8,100L0,200L70.1,200L122.5,109.4C125.8,103.6 125.8,96.4 122.5,90.6Z" style="fill:none;"/>
        <path id="XMLID_92_" d="M92.9,160.6L75.8,131.1L71.6,138.3L92.9,160.6Z" style="fill:url(#_Radial1);fill-rule:nonzero;"/>
        <path id="XMLID_90_" d="M122.5,90.6L70.1,0L0,0L57.8,100L0,200L70.1,200L122.5,109.4C125.8,103.6 125.8,96.4 122.5,90.6Z" style="fill:none;"/>
        <path id="XMLID_89_" d="M71.6,138.3L75.8,131.1L57.8,100L49.3,114.8L71.6,138.3Z" style="fill:url(#_Radial2);fill-rule:nonzero;"/>
        <path id="XMLID_88_" d="M122.5,90.6L70.1,0L0,0L57.8,100L0,200L70.1,200L122.5,109.4C125.8,103.6 125.8,96.4 122.5,90.6Z" style="fill:none;"/>
        <path id="XMLID_87_" d="M35.9,0L0,0L92.9,160.6L110.8,129.5L35.9,0Z" style="fill:rgb(66,133,244);fill-rule:nonzero;"/>
        <path id="XMLID_84_" d="M122.5,90.6L70.1,0L0,0L57.8,100L0,200L70.1,200L122.5,109.4C125.8,103.6 125.8,96.4 122.5,90.6Z" style="fill:none;"/>
        <path id="XMLID_83_" d="M122.5,109.4C125.9,103.6 125.9,96.4 122.5,90.6L70.1,0L35.9,0L110.8,129.5L122.5,109.4Z" style="fill:rgb(219,68,55);fill-rule:nonzero;"/>
        <path id="XMLID_82_" d="M122.5,90.6L70.1,0L0,0L57.8,100L0,200L70.1,200L122.5,109.4C125.8,103.6 125.8,96.4 122.5,90.6Z" style="fill:none;"/>
        <path id="XMLID_71_" d="M110.8,129.5L110.4,128.7L92.9,159L0.9,0L0,0L92.9,160.6L110.8,129.5Z" style="fill:rgb(26,35,126);fill-opacity:0.2;fill-rule:nonzero;"/>
        <path id="XMLID_69_" d="M122.5,90.6L70.1,0L0,0L57.8,100L0,200L70.1,200L122.5,109.4C125.8,103.6 125.8,96.4 122.5,90.6Z" style="fill:none;"/>
        <path id="XMLID_67_" d="M70.1,1.6L122.5,92.2C124,94.9 124.8,97.8 125,100.8C125.1,97.3 124.3,93.8 122.5,90.6L70.1,0L0,0L0.9,1.6L70.1,1.6Z" style="fill:white;fill-opacity:0.2;fill-rule:nonzero;"/>
        <path id="XMLID_66_" d="M122.5,90.6L70.1,0L0,0L57.8,100L0,200L70.1,200L122.5,109.4C125.8,103.6 125.8,96.4 122.5,90.6Z" style="fill:none;"/>
        <path id="XMLID_65_" d="M110.8,129.5L122.4,109.4C124.2,106.3 125,102.7 124.9,99.2C124.8,102.2 124,105.1 122.4,107.8L110.3,128.7L110.8,129.5Z" style="fill:rgb(62,39,35);fill-opacity:0.2;fill-rule:nonzero;"/>
        <path id="XMLID_64_" d="M122.5,90.6L70.1,0L0,0L57.8,100L0,200L70.1,200L122.5,109.4C125.8,103.6 125.8,96.4 122.5,90.6Z" style="fill:none;"/>
        <path id="XMLID_63_" d="M122.5,90.6L70.1,0L0,0L57.8,100L0,200L70.1,200L122.5,109.4C125.8,103.6 125.8,96.4 122.5,90.6Z" style="fill:url(#_Radial3);fill-rule:nonzero;"/>
    </g>
    <g id="XMLID_7_" transform="matrix(1.4,0,0,1.4,0,0)">
        <g transform="matrix(0.997522,0,0,0.997522,-84.8757,-61.1344)">
            <text x="279.432px" y="254.986px" style="font-family:'ProductSans-Regular', 'Product Sans', sans-serif;font-size:112px;fill:rgb(118,118,118);">T<tspan x="332.632px " y="254.986px ">A</tspan>IPEI</text>
        </g>
        <path id="XMLID_2_" d="M275.5,51.8C275.5,62.7 272.3,71.5 265.8,77.9C258.4,85.6 248.8,89.5 237,89.5C225.7,89.5 216.1,85.6 208.2,77.7C200.3,69.9 196.3,60.1 196.3,48.6C196.3,37.1 200.3,27.3 208.2,19.5C216.1,11.7 225.7,7.7 237,7.7C242.6,7.7 248,8.8 253.1,11C258.2,13.2 262.3,16.1 265.3,19.8L258.4,26.7C253.2,20.5 246.1,17.4 237,17.4C228.8,17.4 221.6,20.3 215.6,26.1C209.6,31.9 206.6,39.4 206.6,48.7C206.6,58 209.6,65.5 215.6,71.3C221.6,77.1 228.7,80 237,80C245.8,80 253,77.1 258.9,71.2C262.7,67.4 264.9,62.1 265.5,55.3L237,55.3L237,45.9L275,45.9C275.3,48 275.5,49.9 275.5,51.8Z" style="fill:rgb(118,118,118);fill-rule:nonzero;"/>
        <path id="XMLID_4_" d="M285.4,87.8L285.4,9.5L309.4,9.5C321.4,9.5 331.1,13.1 338.3,20.4C345.5,27.7 349.1,37.1 349.1,48.7C349.1,60.3 345.5,69.7 338.3,77C331.1,84.3 321.5,87.9 309.4,87.9L285.4,87.9L285.4,87.8ZM295.5,78.2L309.4,78.2C318.4,78.2 325.6,75.6 330.9,70.4C336.2,65.2 338.8,58 338.8,48.6C338.8,39.3 336.2,32.1 330.9,26.9C325.6,21.7 318.4,19.1 309.4,19.1L295.5,19.1L295.5,78.2Z" style="fill:rgb(118,118,118);fill-rule:nonzero;"/>
        <path id="XMLID_8_" d="M434.5,51.8C434.5,62.7 431.3,71.5 424.8,77.9C417.4,85.6 407.8,89.5 396,89.5C384.7,89.5 375.1,85.6 367.2,77.7C359.3,69.9 355.3,60.1 355.3,48.6C355.3,37.1 359.3,27.3 367.2,19.5C375.1,11.7 384.7,7.7 396,7.7C401.6,7.7 407,8.8 412.1,11C417.2,13.2 421.3,16.1 424.3,19.8L417.4,26.7C412.2,20.5 405.1,17.4 396,17.4C387.8,17.4 380.6,20.3 374.6,26.1C368.6,31.9 365.6,39.4 365.6,48.7C365.6,58 368.6,65.5 374.6,71.3C380.6,77.1 387.7,80 396,80C404.8,80 412,77.1 417.9,71.2C421.7,67.4 423.9,62.1 424.5,55.3L396,55.3L396,45.9L434,45.9C434.3,48 434.5,49.9 434.5,51.8Z" style="fill:rgb(118,118,118);fill-rule:nonzero;"/>
        <path id="XMLID_10_" d="M470.8,87.8L470.8,9.5L494.8,9.5C506.8,9.5 516.5,13.1 523.7,20.4C530.9,27.7 534.5,37.1 534.5,48.7C534.5,60.3 530.9,69.7 523.7,77C516.5,84.3 506.9,87.9 494.8,87.9L470.8,87.9L470.8,87.8ZM480.9,78.2L494.8,78.2C503.8,78.2 511,75.6 516.3,70.4C521.6,65.2 524.2,58 524.2,48.6C524.2,39.3 521.6,32.1 516.3,26.9C511,21.7 503.8,19.1 494.8,19.1L480.9,19.1L480.9,78.2Z" style="fill:rgb(118,118,118);fill-rule:nonzero;"/>
        <path id="XMLID_13_" d="M567.4,89.6C559.3,89.6 552.7,86.9 547.7,81.5C542.6,76.1 540.1,69.3 540.1,61C540.1,53.2 542.6,46.5 547.5,40.9C552.4,35.3 558.7,32.5 566.4,32.5C574.3,32.5 580.7,35.1 585.5,40.3C590.3,45.5 592.7,52.4 592.7,61.1L592.6,63L550.3,63C550.6,68.4 552.4,72.7 555.7,75.8C559,78.9 562.9,80.5 567.3,80.5C574.5,80.5 579.4,77.4 582,71.3L591,75C589.2,79.2 586.4,82.6 582.4,85.4C578.2,88.2 573.3,89.6 567.4,89.6ZM581.9,54.6C581.7,51.5 580.3,48.6 577.7,45.8C575.1,43 571.3,41.6 566.2,41.6C562.5,41.6 559.3,42.8 556.5,45.1C553.8,47.4 551.9,50.6 550.9,54.5L581.9,54.5L581.9,54.6Z" style="fill:rgb(118,118,118);fill-rule:nonzero;"/>
        <path id="XMLID_16_" d="M613.7,87.8L592,34.2L603,34.2L618.8,75.8L619,75.8L635,34.2L645.7,34.2L623.8,87.8L613.7,87.8Z" style="fill:rgb(118,118,118);fill-rule:nonzero;"/>
        <path id="XMLID_18_" d="M661.6,87.8L651.5,87.8L651.5,9.5L697.2,9.5L697.2,19.1L661.5,19.1L661.5,44.8L693.7,44.8L693.7,54.2L661.5,54.2L661.5,87.8L661.6,87.8Z" style="fill:rgb(118,118,118);fill-rule:nonzero;"/>
        <path id="XMLID_20_" d="M727.7,89.6C719.6,89.6 713,86.9 708,81.5C702.9,76.1 700.4,69.3 700.4,61C700.4,53.2 702.9,46.5 707.8,40.9C712.7,35.3 719,32.5 726.7,32.5C734.6,32.5 741,35.1 745.8,40.3C750.6,45.5 753,52.4 753,61.1L752.9,63L710.6,63C710.9,68.4 712.7,72.7 716,75.8C719.3,78.9 723.2,80.5 727.6,80.5C734.8,80.5 739.7,77.4 742.3,71.3L751.3,75C749.5,79.2 746.7,82.6 742.7,85.4C738.4,88.2 733.5,89.6 727.7,89.6ZM742.1,54.6C741.9,51.5 740.5,48.6 737.9,45.8C735.3,43 731.5,41.6 726.4,41.6C722.7,41.6 719.5,42.8 716.7,45.1C714,47.4 712.1,50.6 711.1,54.5L742.1,54.5L742.1,54.6Z" style="fill:rgb(118,118,118);fill-rule:nonzero;"/>
        <path id="XMLID_27_" d="M779.5,89.6C773.5,89.6 768.6,88.1 764.7,85.2C760.8,82.3 757.9,78.6 756.1,74.3L765.1,70.6C767.9,77.3 772.8,80.7 779.6,80.7C782.7,80.7 785.3,80 787.3,78.6C789.3,77.2 790.3,75.4 790.3,73.1C790.3,69.6 787.9,67.2 783,66L772.2,63.4C768.8,62.5 765.5,60.9 762.5,58.4C759.4,56 757.9,52.7 757.9,48.5C757.9,43.8 760,39.9 764.2,37C768.4,34 773.4,32.6 779.1,32.6C783.8,32.6 788.1,33.7 791.8,35.8C795.5,38 798.2,41 799.8,45L791,48.6C789,43.9 784.9,41.5 778.8,41.5C775.8,41.5 773.3,42.1 771.3,43.4C769.3,44.6 768.2,46.3 768.2,48.4C768.2,51.5 770.6,53.5 775.3,54.6L785.9,57.1C790.9,58.3 794.7,60.3 797.1,63.1C799.5,65.9 800.7,69.2 800.7,72.7C800.7,77.5 798.7,81.5 794.8,84.7C790.8,88 785.7,89.6 779.5,89.6Z" style="fill:rgb(118,118,118);fill-rule:nonzero;"/>
        <path id="XMLID_29_" d="M830.9,88.7C825.3,88.7 821,87.2 818,84.2C815,81.2 813.6,77 813.6,71.5L813.6,43.4L804.2,43.4L804.2,34.2L813.6,34.2L813.6,17.8L823.7,17.8L823.7,34.2L836.8,34.2L836.8,43.4L823.7,43.4L823.7,70.7C823.7,76.5 826.1,79.5 830.9,79.5C832.7,79.5 834.3,79.2 835.5,78.6L839,87.2C836.8,88.2 834.1,88.7 830.9,88.7Z" style="fill:rgb(118,118,118);fill-rule:nonzero;"/>
        <g transform="matrix(0.980438,0,0,0.980438,31.4213,12.1613)">
            <path d="M568.231,183.25L518.527,183.25L518.527,172.762C533.423,157.79 542.961,148.024 547.141,143.464C550.865,139.284 553.373,136.111 554.665,133.945C555.957,131.779 556.603,129.1 556.603,125.908C556.603,122.64 555.311,119.752 552.727,117.244C550.143,114.736 546.685,113.482 542.353,113.482C538.401,113.482 535.209,114.641 532.777,116.959C530.345,119.277 528.787,121.766 528.103,124.426L518.527,120.55C519.819,116.446 522.517,112.57 526.621,108.922C530.725,105.274 536.045,103.45 542.581,103.45C549.801,103.45 555.729,105.654 560.365,110.062C565.001,114.47 567.319,119.752 567.319,125.908C567.319,133.508 563.177,141.64 554.893,150.304L532.093,173.218L568.231,173.218L568.231,183.25Z" style="fill:rgb(118,118,118);fill-rule:nonzero;"/>
            <path d="M632.299,173.332C626.523,181.16 618.961,185.074 609.613,185.074C600.265,185.074 592.703,181.16 586.927,173.332C581.151,165.504 578.263,155.814 578.263,144.262C578.263,132.634 581.151,122.925 586.927,115.135C592.703,107.345 600.265,103.45 609.613,103.45C618.961,103.45 626.523,107.345 632.299,115.135C638.075,122.925 640.963,132.634 640.963,144.262C640.963,155.814 638.075,165.504 632.299,173.332ZM609.613,175.042C615.845,175.042 620.842,172.116 624.604,166.264C628.366,160.412 630.247,153.078 630.247,144.262C630.247,135.37 628.366,128.017 624.604,122.203C620.842,116.389 615.845,113.482 609.613,113.482C603.305,113.482 598.289,116.389 594.565,122.203C590.841,128.017 588.979,135.37 588.979,144.262C588.979,153.078 590.841,160.412 594.565,166.264C598.289,172.116 603.305,175.042 609.613,175.042Z" style="fill:rgb(118,118,118);fill-rule:nonzero;"/>
            <path d="M679.039,183.25L668.551,183.25L668.551,118.27L653.389,124.882L649.399,115.99L672.313,105.274L679.039,105.274L679.039,183.25Z" style="fill:rgb(118,118,118);fill-rule:nonzero;"/>
            <path d="M705.829,185.074L696.481,180.286L732.619,115.306L693.175,115.306L693.403,105.274L743.677,105.274L743.677,115.99L705.829,185.074Z" style="fill:rgb(118,118,118);fill-rule:nonzero;"/>
        </g>
    </g>
    <defs>
        <radialGradient id="_Radial1" cx="0" cy="0" r="1" gradientUnits="userSpaceOnUse" gradientTransform="matrix(69.162,0,0,-69.162,92.62,159.959)"><stop offset="0" style="stop-color:rgb(191,54,12);stop-opacity:0.2"/><stop offset="1" style="stop-color:rgb(191,54,12);stop-opacity:0.0156863"/></radialGradient>
        <radialGradient id="_Radial2" cx="0" cy="0" r="1" gradientUnits="userSpaceOnUse" gradientTransform="matrix(69.723,0,0,-69.723,92.423,160.397)"><stop offset="0" style="stop-color:rgb(38,50,56);stop-opacity:0.2"/><stop offset="1" style="stop-color:rgb(38,50,56);stop-opacity:0.0156863"/></radialGradient>
        <radialGradient id="_Radial3" cx="0" cy="0" r="1" gradientUnits="userSpaceOnUse" gradientTransform="matrix(209.922,0,0,-209.922,-1.563,1.562)"><stop offset="0" style="stop-color:white;stop-opacity:0.0941176"/><stop offset="1" style="stop-color:white;stop-opacity:0"/></radialGradient>
    </defs>
</svg>
