<?xml version="1.0" encoding="UTF-8" standalone="no"?>
<!DOCTYPE svg PUBLIC "-//W3C//DTD SVG 1.1//EN" "http://www.w3.org/Graphics/SVG/1.1/DTD/svg11.dtd">
<svg width="100%" height="100%" viewBox="0 0 839 200" version="1.1" xmlns="http://www.w3.org/2000/svg" xmlns:xlink="http://www.w3.org/1999/xlink" xml:space="preserve" xmlns:serif="http://www.serif.com/" style="fill-rule:evenodd;clip-rule:evenodd;stroke-linejoin:round;stroke-miterlimit:1.41421;">
    <g id="XMLID_7_">
        <g transform="matrix(1,0,0,1,-6,0)">
            <text x="199.626px" y="186.912px" style="font-family:'ArialMT', 'Arial', sans-serif;font-size:112.048px;fill:white;">T<tspan x="259.753px 334.488px " y="186.912px 186.912px ">AI</tspan>PEI</text>
        </g>
        <g transform="matrix(1,0,0,1,61,-6)">
            <path d="M556.808,191.641L507.976,191.641L507.976,181.337C522.611,166.628 531.981,157.033 536.088,152.553C539.747,148.446 542.211,145.329 543.48,143.201C544.749,141.073 545.384,138.441 545.384,135.305C545.384,132.094 544.115,129.257 541.576,126.793C539.037,124.329 535.64,123.097 531.384,123.097C527.501,123.097 524.365,124.236 521.976,126.513C519.587,128.79 518.056,131.236 517.384,133.849L507.976,130.041C509.245,126.009 511.896,122.201 515.928,118.617C519.96,115.033 525.187,113.241 531.608,113.241C538.701,113.241 544.525,115.406 549.08,119.737C553.635,124.068 555.912,129.257 555.912,135.305C555.912,142.772 551.843,150.761 543.704,159.273L521.304,181.785L556.808,181.785L556.808,191.641Z" style="fill:white;fill-rule:nonzero;"/>
            <path d="M619.752,181.897C614.077,189.588 606.648,193.433 597.464,193.433C588.28,193.433 580.851,189.588 575.176,181.897C569.501,174.206 566.664,164.686 566.664,153.337C566.664,141.913 569.501,132.374 575.176,124.721C580.851,117.068 588.28,113.241 597.464,113.241C606.648,113.241 614.077,117.068 619.752,124.721C625.427,132.374 628.264,141.913 628.264,153.337C628.264,164.686 625.427,174.206 619.752,181.897ZM597.464,183.577C603.587,183.577 608.496,180.702 612.192,174.953C615.888,169.204 617.736,161.998 617.736,153.337C617.736,144.601 615.888,137.377 612.192,131.665C608.496,125.953 603.587,123.097 597.464,123.097C591.267,123.097 586.339,125.953 582.68,131.665C579.021,137.377 577.192,144.601 577.192,153.337C577.192,161.998 579.021,169.204 582.68,174.953C586.339,180.702 591.267,183.577 597.464,183.577Z" style="fill:white;fill-rule:nonzero;"/>
            <path d="M665.672,191.641L655.368,191.641L655.368,127.801L640.472,134.297L636.552,125.561L659.064,115.033L665.672,115.033L665.672,191.641Z" style="fill:white;fill-rule:nonzero;"/>
            <path d="M691.992,193.433L682.808,188.729L718.312,124.889L679.56,124.889L679.784,115.033L729.176,115.033L729.176,125.561L691.992,193.433Z" style="fill:white;fill-rule:nonzero;"/>
        </g>
        <path id="XMLID_2_" d="M275.5,51.8C275.5,62.7 272.3,71.5 265.8,77.9C258.4,85.6 248.8,89.5 237,89.5C225.7,89.5 216.1,85.6 208.2,77.7C200.3,69.9 196.3,60.1 196.3,48.6C196.3,37.1 200.3,27.3 208.2,19.5C216.1,11.7 225.7,7.7 237,7.7C242.6,7.7 248,8.8 253.1,11C258.2,13.2 262.3,16.1 265.3,19.8L258.4,26.7C253.2,20.5 246.1,17.4 237,17.4C228.8,17.4 221.6,20.3 215.6,26.1C209.6,31.9 206.6,39.4 206.6,48.7C206.6,58 209.6,65.5 215.6,71.3C221.6,77.1 228.7,80 237,80C245.8,80 253,77.1 258.9,71.2C262.7,67.4 264.9,62.1 265.5,55.3L237,55.3L237,45.9L275,45.9C275.3,48 275.5,49.9 275.5,51.8Z" style="fill:white;fill-rule:nonzero;"/>
        <path id="XMLID_4_" d="M285.4,87.8L285.4,9.5L309.4,9.5C321.4,9.5 331.1,13.1 338.3,20.4C345.5,27.7 349.1,37.1 349.1,48.7C349.1,60.3 345.5,69.7 338.3,77C331.1,84.3 321.5,87.9 309.4,87.9L285.4,87.9L285.4,87.8ZM295.5,78.2L309.4,78.2C318.4,78.2 325.6,75.6 330.9,70.4C336.2,65.2 338.8,58 338.8,48.6C338.8,39.3 336.2,32.1 330.9,26.9C325.6,21.7 318.4,19.1 309.4,19.1L295.5,19.1L295.5,78.2Z" style="fill:white;fill-rule:nonzero;"/>
        <path id="XMLID_8_" d="M434.5,51.8C434.5,62.7 431.3,71.5 424.8,77.9C417.4,85.6 407.8,89.5 396,89.5C384.7,89.5 375.1,85.6 367.2,77.7C359.3,69.9 355.3,60.1 355.3,48.6C355.3,37.1 359.3,27.3 367.2,19.5C375.1,11.7 384.7,7.7 396,7.7C401.6,7.7 407,8.8 412.1,11C417.2,13.2 421.3,16.1 424.3,19.8L417.4,26.7C412.2,20.5 405.1,17.4 396,17.4C387.8,17.4 380.6,20.3 374.6,26.1C368.6,31.9 365.6,39.4 365.6,48.7C365.6,58 368.6,65.5 374.6,71.3C380.6,77.1 387.7,80 396,80C404.8,80 412,77.1 417.9,71.2C421.7,67.4 423.9,62.1 424.5,55.3L396,55.3L396,45.9L434,45.9C434.3,48 434.5,49.9 434.5,51.8Z" style="fill:white;fill-rule:nonzero;"/>
        <path id="XMLID_10_" d="M470.8,87.8L470.8,9.5L494.8,9.5C506.8,9.5 516.5,13.1 523.7,20.4C530.9,27.7 534.5,37.1 534.5,48.7C534.5,60.3 530.9,69.7 523.7,77C516.5,84.3 506.9,87.9 494.8,87.9L470.8,87.9L470.8,87.8ZM480.9,78.2L494.8,78.2C503.8,78.2 511,75.6 516.3,70.4C521.6,65.2 524.2,58 524.2,48.6C524.2,39.3 521.6,32.1 516.3,26.9C511,21.7 503.8,19.1 494.8,19.1L480.9,19.1L480.9,78.2Z" style="fill:white;fill-rule:nonzero;"/>
        <path id="XMLID_13_" d="M567.4,89.6C559.3,89.6 552.7,86.9 547.7,81.5C542.6,76.1 540.1,69.3 540.1,61C540.1,53.2 542.6,46.5 547.5,40.9C552.4,35.3 558.7,32.5 566.4,32.5C574.3,32.5 580.7,35.1 585.5,40.3C590.3,45.5 592.7,52.4 592.7,61.1L592.6,63L550.3,63C550.6,68.4 552.4,72.7 555.7,75.8C559,78.9 562.9,80.5 567.3,80.5C574.5,80.5 579.4,77.4 582,71.3L591,75C589.2,79.2 586.4,82.6 582.4,85.4C578.2,88.2 573.3,89.6 567.4,89.6ZM581.9,54.6C581.7,51.5 580.3,48.6 577.7,45.8C575.1,43 571.3,41.6 566.2,41.6C562.5,41.6 559.3,42.8 556.5,45.1C553.8,47.4 551.9,50.6 550.9,54.5L581.9,54.5L581.9,54.6Z" style="fill:white;fill-rule:nonzero;"/>
        <path id="XMLID_16_" d="M613.7,87.8L592,34.2L603,34.2L618.8,75.8L619,75.8L635,34.2L645.7,34.2L623.8,87.8L613.7,87.8Z" style="fill:white;fill-rule:nonzero;"/>
        <path id="XMLID_18_" d="M661.6,87.8L651.5,87.8L651.5,9.5L697.2,9.5L697.2,19.1L661.5,19.1L661.5,44.8L693.7,44.8L693.7,54.2L661.5,54.2L661.5,87.8L661.6,87.8Z" style="fill:white;fill-rule:nonzero;"/>
        <path id="XMLID_20_" d="M727.7,89.6C719.6,89.6 713,86.9 708,81.5C702.9,76.1 700.4,69.3 700.4,61C700.4,53.2 702.9,46.5 707.8,40.9C712.7,35.3 719,32.5 726.7,32.5C734.6,32.5 741,35.1 745.8,40.3C750.6,45.5 753,52.4 753,61.1L752.9,63L710.6,63C710.9,68.4 712.7,72.7 716,75.8C719.3,78.9 723.2,80.5 727.6,80.5C734.8,80.5 739.7,77.4 742.3,71.3L751.3,75C749.5,79.2 746.7,82.6 742.7,85.4C738.4,88.2 733.5,89.6 727.7,89.6ZM742.1,54.6C741.9,51.5 740.5,48.6 737.9,45.8C735.3,43 731.5,41.6 726.4,41.6C722.7,41.6 719.5,42.8 716.7,45.1C714,47.4 712.1,50.6 711.1,54.5L742.1,54.5L742.1,54.6Z" style="fill:white;fill-rule:nonzero;"/>
        <path id="XMLID_27_" d="M779.5,89.6C773.5,89.6 768.6,88.1 764.7,85.2C760.8,82.3 757.9,78.6 756.1,74.3L765.1,70.6C767.9,77.3 772.8,80.7 779.6,80.7C782.7,80.7 785.3,80 787.3,78.6C789.3,77.2 790.3,75.4 790.3,73.1C790.3,69.6 787.9,67.2 783,66L772.2,63.4C768.8,62.5 765.5,60.9 762.5,58.4C759.4,56 757.9,52.7 757.9,48.5C757.9,43.8 760,39.9 764.2,37C768.4,34 773.4,32.6 779.1,32.6C783.8,32.6 788.1,33.7 791.8,35.8C795.5,38 798.2,41 799.8,45L791,48.6C789,43.9 784.9,41.5 778.8,41.5C775.8,41.5 773.3,42.1 771.3,43.4C769.3,44.6 768.2,46.3 768.2,48.4C768.2,51.5 770.6,53.5 775.3,54.6L785.9,57.1C790.9,58.3 794.7,60.3 797.1,63.1C799.5,65.9 800.7,69.2 800.7,72.7C800.7,77.5 798.7,81.5 794.8,84.7C790.8,88 785.7,89.6 779.5,89.6Z" style="fill:white;fill-rule:nonzero;"/>
        <path id="XMLID_29_" d="M830.9,88.7C825.3,88.7 821,87.2 818,84.2C815,81.2 813.6,77 813.6,71.5L813.6,43.4L804.2,43.4L804.2,34.2L813.6,34.2L813.6,17.8L823.7,17.8L823.7,34.2L836.8,34.2L836.8,43.4L823.7,43.4L823.7,70.7C823.7,76.5 826.1,79.5 830.9,79.5C832.7,79.5 834.3,79.2 835.5,78.6L839,87.2C836.8,88.2 834.1,88.7 830.9,88.7Z" style="fill:white;fill-rule:nonzero;"/>
    </g>
    <g id="XMLID_261_">
        <path id="XMLID_259_" d="M32.3,0L0,0L92.3,160L108.5,132L32.3,0Z" style="fill:white;fill-rule:nonzero;"/>
        <path id="XMLID_258_" d="M120.9,91L68.3,0L36.1,0L110.4,128.8L120.9,110.6C122.6,107.8 123.7,104.4 123.7,100.8C123.6,97.2 122.6,93.9 120.9,91Z" style="fill:white;fill-rule:nonzero;"/>
        <path id="XMLID_257_" d="M56.3,104.1L0.9,200L33.2,200L72.5,132L56.3,104.1Z" style="fill:white;fill-rule:nonzero;"/>
        <path id="XMLID_256_" d="M74.3,135.3L37,200L69.2,200L90.5,163.2L74.3,135.3Z" style="fill:white;fill-rule:nonzero;"/>
    </g>
</svg>
